{"title":"ABCD 2 (2015) Pre DvD Rip - XviD - [1CD] - Team IcTv Exclusive","uid":12040700,"size":725144738,"categoryP":"video","categoryS":"movies","magnet":"?xt=urn:btih:d5363c86e9f2196d143886fca783761d8084559f&amp;dn=ABCD+2+%282015%29+Pre+DvD+Rip+-+XviD+-+%5B1CD%5D+-+Team+IcTv+Exclusive&amp;tr=udp%3A%2F%2Ftracker.openbittorrent.com%3A80&amp;tr=udp%3A%2F%2Fopen.demonii.com%3A1337&amp;tr=udp%3A%2F%2Ftracker.coppersurfer.tk%3A6969&amp;tr=udp%3A%2F%2Fexodus.desync.com%3A6969","seeders":1,"leechers":0,"uploader":"SS132203","files":2,"time":1434780139,"description":"ABCD 2 (2015) Pre DvD Rip - XviD - [1CD] - Team IcTv Exclusive\n &lt;a href=&quot;\nhttp://imgsparrow.co/image/47&quot; rel=&quot;nofollow&quot; target=&quot;_NEW&quot;&gt;\nhttp://imgsparrow.co/image/47&lt;/a&gt;\n &lt;a href=&quot;\nhttp://imgsparrow.co/image/QS&quot; rel=&quot;nofollow&quot; target=&quot;_NEW&quot;&gt;\nhttp://imgsparrow.co/image/QS&lt;/a&gt;\n\nInfo : - \n\nAll Credit Goes To Intellect Clever &amp; IcTv (Thank Them Not Me)\n\nMovie Info\nBanner : Disney\nYear : 2015\nCast : Varun Dhawan and Shraddha Kapoor\nVideo: XviD\nAudio : MP3\nGenre : Musicall\nSubtitles :nope\nResolution : 640 x 272\nRuntime : 2hr 28min XX\nSource : Team IcTv \n\nFormat                      : AVI\nFormat/Info                 : Audio Video Interleave\nFile size                   : 692 MiB\nDuration                    : 2h 28mn\nOverall bit rate            : 651 Kbps\n\nVideo\nID                          : 0\nFormat                      : MPEG-4 Visual\nFormat profile              : Advanced Simple@L5\nFormat settings, BVOP       : 2\nFormat settings, QPel       : No\nFormat settings, GMC        : No warppoints\nFormat settings, Matrix     : Default (H.263)\nCodec ID                    : XVID\nCodec ID/Hint               : XviD\nDuration                    : 2h 28mn\nBit rate                    : 517 Kbps\nWidth                       : 640 pixels\nHeight                      : 272 pixels\nDisplay aspect ratio        : 2.35:1\nFrame rate                  : 25.000 fps\nColor space                 : YUV\nChroma subsampling          : 4:2:0\nBit depth                   : 8 bits\nScan type                   : Progressive\nCompression mode            : Lossy\nBits/(Pixel*Frame)          : 0.119\nStream size                 : 549 MiB (79%)\nWriting library             : XviD 1.2.1 (UTC 2008-12-04)\n\nAudio\nID                          : 1\nFormat                      : MPEG Audio\nFormat version              : Version 1\nFormat profile              : Layer 3\nMode                        : Joint stereo\nMode extension              : MS Stereo\nCodec ID                    : 55\nCodec ID/Hint               : MP3\nDuration                    : 2h 28mn\nBit rate mode               : Constant\nBit rate                    : 128 Kbps\nChannel(s)                  : 2 channels\nSampling rate               : 48.0 KHz\nCompression mode            : Lossy\nStream size                 : 136 MiB (20%)\n\nScreens : - \n &lt;a href=&quot;\nhttp://imgsparrow.co/image/Zj&quot; rel=&quot;nofollow&quot; target=&quot;_NEW&quot;&gt;\nhttp://imgsparrow.co/image/Zj&lt;/a&gt; &lt;a href=&quot;\nhttp://imgsparrow.co/image/Zr&quot; rel=&quot;nofollow&quot; target=&quot;_NEW&quot;&gt;\nhttp://imgsparrow.co/image/Zr&lt;/a&gt; &lt;a href=&quot;\nhttp://imgsparrow.co/image/ZD&quot; rel=&quot;nofollow&quot; target=&quot;_NEW&quot;&gt;\nhttp://imgsparrow.co/image/ZD&lt;/a&gt; &lt;a href=&quot;\nhttp://imgsparrow.co/image/ZG&quot; rel=&quot;nofollow&quot; target=&quot;_NEW&quot;&gt;\nhttp://imgsparrow.co/image/ZG&lt;/a&gt; &lt;a href=&quot;\nhttp://imgsparrow.co/image/Ze&quot; rel=&quot;nofollow&quot; target=&quot;_NEW&quot;&gt;\nhttp://imgsparrow.co/image/Ze&lt;/a&gt; &lt;a href=&quot;\nhttp://imgsparrow.co/image/Zg&quot; rel=&quot;nofollow&quot; target=&quot;_NEW&quot;&gt;\nhttp://imgsparrow.co/image/Zg&lt;/a&gt; &lt;a href=&quot;\nhttp://imgsparrow.co/image/Zq&quot; rel=&quot;nofollow&quot; target=&quot;_NEW&quot;&gt;\nhttp://imgsparrow.co/image/Zq&lt;/a&gt; &lt;a href=&quot;\nhttp://imgsparrow.co/image/Zz&quot; rel=&quot;nofollow&quot; target=&quot;_NEW&quot;&gt;\nhttp://imgsparrow.co/image/Zz&lt;/a&gt; &lt;a href=&quot;\nhttp://imgsparrow.co/image/Z7&quot; rel=&quot;nofollow&quot; target=&quot;_NEW&quot;&gt;\nhttp://imgsparrow.co/image/Z7&lt;/a&gt; &lt;a href=&quot;\nhttp://imgsparrow.co/image/Zk&quot; rel=&quot;nofollow&quot; target=&quot;_NEW&quot;&gt;\nhttp://imgsparrow.co/image/Zk&lt;/a&gt;\n &lt;a href=&quot;\nhttp://imgsparrow.co/image/N2&quot; rel=&quot;nofollow&quot; target=&quot;_NEW&quot;&gt;\nhttp://imgsparrow.co/image/N2&lt;/a&gt;","torrent":{"xt":"urn:btih:d5363c86e9f2196d143886fca783761d8084559f","amp;dn":"ABCD+2+%282015%29+Pre+DvD+Rip+-+XviD+-+%5B1CD%5D+-+Team+IcTv+Exclusive","amp;tr":["udp%3A%2F%2Ftracker.openbittorrent.com%3A80","udp%3A%2F%2Fopen.demonii.com%3A1337","udp%3A%2F%2Ftracker.coppersurfer.tk%3A6969","udp%3A%2F%2Fexodus.desync.com%3A6969"],"infoHash":"d5363c86e9f2196d143886fca783761d8084559f","infoHashBuffer":{"type":"Buffer","data":[213,54,60,134,233,242,25,109,20,56,134,252,167,131,118,29,128,132,85,159]},"announce":[],"urlList":[]}}